<?xml version="1.0" encoding="UTF-8"?>
<!DOCTYPE svg PUBLIC "-//W3C//DTD SVG 1.1//EN" "http://www.w3.org/Graphics/SVG/1.1/DTD/svg11.dtd">
<!-- Creator: CorelDRAW -->
<svg xmlns="http://www.w3.org/2000/svg" xml:space="preserve" width="0.47002in" height="0.47002in" style="shape-rendering:geometricPrecision; text-rendering:geometricPrecision; image-rendering:optimizeQuality; fill-rule:evenodd; clip-rule:evenodd"
viewBox="0 0 0.471929 0.471929"
 xmlns:xlink="http://www.w3.org/1999/xlink">
 <defs>
  <style type="text/css">
   <![CDATA[
    .fil0 {fill:#CDD2D5}
    .fil1 {fill:#CDD2D5;fill-rule:nonzero}
   ]]>
  </style>
 </defs>
 <g id="Layer_x0020_1">
  <metadata id="CorelCorpID_0Corel-Layer"/>
  <g id="_142637352">
   <polygon id="_142637592" class="fil0" points="0.235966,0.118175 0.233563,0.118977 0.23116,0.119776 0.229555,0.120578 0.227954,0.121381 0.226353,0.122179 0.224748,0.122982 0.223147,0.123784 0.222344,0.124587 0.221542,0.125385 0.219941,0.126188 0.219139,0.126986 0.21834,0.127789 0.217538,0.128591 0.216735,0.129394 0.215933,0.130196 0.215134,0.130995 0.214332,0.131797 0.213529,0.132599 0.212731,0.133398 0.211928,0.135003 0.211126,0.135801 0.210323,0.137406 0.209525,0.138209 0.208722,0.13981 0.207924,0.141411 0.207121,0.143016 0.206319,0.145419 0.205517,0.147822 0.204718,0.151028 0.203916,0.163045 0.203916,0.17747 0.203916,0.187084 0.203916,0.193495 0.181478,0.193495 0.179877,0.194298 0.179877,0.234362 0.18068,0.23516 0.182281,0.235963 0.203916,0.235963 0.203916,0.249585 0.203916,0.259198 0.203916,0.273623 0.203916,0.283236 0.203916,0.297661 0.203916,0.307279 0.203916,0.321699 0.203916,0.331317 0.203916,0.345737 0.204718,0.35375 0.205517,0.354553 0.253593,0.354553 0.254395,0.35375 0.254395,0.235963 0.286446,0.235963 0.288051,0.23516 0.28885,0.233559 0.289652,0.224744 0.290455,0.21513 0.291253,0.206315 0.291253,0.194298 0.290455,0.193495 0.254356,0.193495 0.255198,0.167054 0.256,0.165449 0.256799,0.163848 0.257601,0.163045 0.2584,0.162243 0.259202,0.161445 0.260807,0.160642 0.263211,0.159844 0.291253,0.159041 0.292056,0.158239 0.292056,0.118175 0.291253,0.117372 0.239971,0.117372 "/>
   <path id="_142637784" class="fil1" d="M0.235966 0l2.7671e-005 0 0 7.1154e-005c0.065185,7.906e-006 0.124176,0.02641 0.166825,0.0690589 0.0426371,0.042645 0.0690233,0.101616 0.0690392,0.166777l7.1154e-005 0 0 5.9295e-005 0 2.7671e-005 -7.1154e-005 0c-7.906e-006,0.0651889 -0.02641,0.124176 -0.0690589,0.166825 -0.042645,0.0426371 -0.101612,0.0690233 -0.166773,0.0690392l0 7.1154e-005 -5.9295e-005 0 -2.7671e-005 0 0 -7.1154e-005c-0.065185,-7.906e-006 -0.124176,-0.0264021 -0.166828,-0.0690589 -0.042641,-0.042645 -0.0690233,-0.101612 -0.0690392,-0.166773l-7.1154e-005 0 0 -5.9295e-005 0 -2.7671e-005 7.1154e-005 0c7.906e-006,-0.065185 0.0263981,-0.124172 0.0690589,-0.166825 0.042645,-0.042641 0.101612,-0.0690273 0.166777,-0.0690431l0 -7.1154e-005 5.9295e-005 0zm2.7671e-005 0.0347943l0 7.1154e-005 -2.7671e-005 0 -5.9295e-005 0 0 -7.1154e-005c-0.0554448,1.1859e-005 -0.105703,0.0225519 -0.142126,0.0589709 -0.0364388,0.0364309 -0.0589827,0.0867091 -0.0589867,0.142174l7.1154e-005 0 0 2.7671e-005 0 5.9295e-005 -7.1154e-005 0c1.1859e-005,0.0554408 0.0225479,0.105699 0.0589669,0.142122 0.0364309,0.0364348 0.086713,0.0589827 0.142178,0.0589867l0 -7.1154e-005 2.7671e-005 0 5.9295e-005 0 0 7.1154e-005c0.0554408,-1.1859e-005 0.105699,-0.0225519 0.142122,-0.0589669 0.0364309,-0.0364309 0.0589827,-0.0867091 0.0589867,-0.142174l-7.1154e-005 0 0 -2.7671e-005 0 -5.9295e-005 7.1154e-005 0c-1.1859e-005,-0.0554408 -0.0225519,-0.105703 -0.0589669,-0.142126 -0.0364309,-0.0364309 -0.086713,-0.0589827 -0.142174,-0.0589867z"/>
  </g>
 </g>
</svg>
