<?xml version="1.0" encoding="UTF-8"?>
<!DOCTYPE svg PUBLIC "-//W3C//DTD SVG 1.1//EN" "http://www.w3.org/Graphics/SVG/1.1/DTD/svg11.dtd">
<!-- Creator: CorelDRAW -->
<svg xmlns="http://www.w3.org/2000/svg" xml:space="preserve" width="0.47002in" height="0.47002in" style="shape-rendering:geometricPrecision; text-rendering:geometricPrecision; image-rendering:optimizeQuality; fill-rule:evenodd; clip-rule:evenodd"
viewBox="0 0 0.0554909 0.0554909"
 xmlns:xlink="http://www.w3.org/1999/xlink">
 <defs>
  <style type="text/css">
   <![CDATA[
    .fil0 {fill:#CDD2D5;fill-rule:nonzero}
   ]]>
  </style>
 </defs>
 <g id="Layer_x0020_1">
  <metadata id="CorelCorpID_0Corel-Layer"/>
  <g id="_142636968">
   <path id="_142636992" class="fil0" d="M0.0277457 0l3.25364e-006 0 0 8.36652e-006c0.00766466,9.29613e-007 0.014601,0.00310537 0.0196158,0.00812017 0.0050134,0.00501433 0.00811598,0.0119483 0.00811784,0.0196102l8.36652e-006 0 0 6.9721e-006 0 3.25364e-006 -8.36652e-006 0c-9.29613e-007,0.00766512 -0.00310537,0.014601 -0.00812017,0.0196158 -0.00501433,0.0050134 -0.0119478,0.00811598 -0.0196097,0.00811784l0 8.36652e-006 -6.9721e-006 0 -3.25364e-006 0 0 -8.36652e-006c-0.00766466,-9.29613e-007 -0.014601,-0.00310444 -0.0196162,-0.00812017 -0.00501387,-0.00501433 -0.00811598,-0.0119478 -0.00811784,-0.0196097l-8.36652e-006 0 0 -6.9721e-006 0 -3.25364e-006 8.36652e-006 0c9.29613e-007,-0.00766466 0.00310398,-0.0146005 0.00812017,-0.0196158 0.00501433,-0.00501387 0.0119478,-0.00811645 0.0196102,-0.00811831l0 -8.36652e-006 6.9721e-006 0zm3.25364e-006 0.00409123l0 8.36652e-006 -3.25364e-006 0 -6.9721e-006 0 0 -8.36652e-006c-0.00651937,1.39442e-006 -0.0124289,0.00265172 -0.0167116,0.00693398 -0.00428459,0.00428366 -0.00693538,0.0101955 -0.00693584,0.0167172l8.36652e-006 0 0 3.25364e-006 0 6.9721e-006 -8.36652e-006 0c1.39442e-006,0.00651891 0.00265126,0.0124285 0.00693352,0.0167112 0.00428366,0.00428412 0.010196,0.00693538 0.0167177,0.00693584l0 -8.36652e-006 3.25364e-006 0 6.9721e-006 0 0 8.36652e-006c0.00651891,-1.39442e-006 0.0124285,-0.00265172 0.0167112,-0.00693352 0.00428366,-0.00428366 0.00693538,-0.0101955 0.00693584,-0.0167172l-8.36652e-006 0 0 -3.25364e-006 0 -6.9721e-006 8.36652e-006 0c-1.39442e-006,-0.00651891 -0.00265172,-0.0124289 -0.00693352,-0.0167116 -0.00428366,-0.00428366 -0.010196,-0.00693538 -0.0167172,-0.00693584z"/>
   <path id="_142637688" class="fil0" d="M0.0218022 0.013801l0.011887 0 4.64806e-007 0 0 4.64806e-006c0.00220458,4.64806e-007 0.00420464,0.000898471 0.00565112,0.00234495 0.00144601,0.00144601 0.00234402,0.00344561 0.00234448,0.00564972l4.64806e-006 0 0 1.39442e-006 0 0.011887 0 4.64806e-007 -4.64806e-006 0c-4.64806e-007,0.00220458 -0.000898471,0.0042051 -0.00234495,0.00565112 -0.00144601,0.00144601 -0.00344561,0.00234402 -0.00564972,0.00234448l0 4.64806e-006 -1.39442e-006 0 -0.011887 0 -4.64806e-007 0 0 -4.64806e-006c-0.00220458,-4.64806e-007 -0.0042051,-0.000898471 -0.00565112,-0.00234495 -0.00144601,-0.00144601 -0.00234402,-0.00344561 -0.00234448,-0.00564972l-4.64806e-006 0 0 -1.39442e-006 0 -0.011887 0 -4.64806e-007 4.64806e-006 0c4.64806e-007,-0.00220458 0.000898471,-0.00420464 0.00234495,-0.00565112 0.00144601,-0.00144601 0.00344561,-0.00234402 0.00564972,-0.00234448l0 -4.64806e-006 1.39442e-006 0zm0.0133488 0.00483631c0.000926824,0 0.00167795,0.000751127 0.00167795,0.00167795 0,0.000926359 -0.000751127,0.00167749 -0.00167795,0.00167749 -0.000926359,0 -0.00167749,-0.000751127 -0.00167749,-0.00167749 0,-0.000926824 0.000751127,-0.00167795 0.00167749,-0.00167795zm-0.00146182 -0.00236261l-0.011887 0 -1.39442e-006 0 0 -4.64806e-006c-0.0015148,4.64806e-007 -0.00289574,0.000624235 -0.00390066,0.00162915 -0.00100538,0.00100491 -0.00162961,0.00238678 -0.00162961,0.00390205l4.64806e-006 0 0 4.64806e-007 0 0.011887 0 1.39442e-006 -4.64806e-006 0c4.64806e-007,0.0015148 0.000624235,0.00289574 0.00162915,0.00390066 0.00100491,0.00100538 0.00238678,0.00162961 0.00390205,0.00162961l0 -4.64806e-006 4.64806e-007 0 0.011887 0 1.39442e-006 0 0 4.64806e-006c0.00151434,-4.64806e-007 0.00289574,-0.000624235 0.00390066,-0.00162915 0.00100538,-0.00100491 0.00162961,-0.00238678 0.00162961,-0.00390205l-4.64806e-006 0 0 -4.64806e-007 0 -0.011887 0 -1.39442e-006 4.64806e-006 0c-4.64806e-007,-0.00151434 -0.000624235,-0.00289574 -0.00162915,-0.00390066 -0.00100491,-0.00100538 -0.00238678,-0.00162961 -0.00390205,-0.00162961l0 4.64806e-006 -4.64806e-007 0zm-0.00594348 0.00439103l4.64806e-007 0 0 5.11287e-006c0.00195776,0 0.00372728,0.000790636 0.0050055,0.00206885 0.00127729,0.00127822 0.00206839,0.00304681 0.00206839,0.00500411l5.11287e-006 0 0 1.39442e-006 0 4.64806e-007 -5.11287e-006 0c0,0.00195776 -0.000790636,0.00372728 -0.00206885,0.0050055 -0.00127822,0.00127775 -0.00304681,0.00206839 -0.00500411,0.00206839l0 5.11287e-006 -1.39442e-006 0 -4.64806e-007 0 0 -5.11287e-006c-0.00195776,0 -0.00372728,-0.000790636 -0.0050055,-0.00206885 -0.00127775,-0.00127775 -0.00206839,-0.00304681 -0.00206839,-0.00500411l-5.11287e-006 0 0 -1.39442e-006 0 -4.64806e-007 5.11287e-006 0c0,-0.00195776 0.000790636,-0.00372728 0.00206885,-0.0050055 0.00127775,-0.00127729 0.00304681,-0.00206839 0.00500411,-0.00206839l0 -5.11287e-006 1.39442e-006 0zm4.64806e-007 0.00246905l0 5.11287e-006 -4.64806e-007 0 -1.39442e-006 0 0 -5.11287e-006c-0.00126753,4.64806e-007 -0.00241885,0.000517794 -0.00325504,0.00135352 -0.000836187,0.000836652 -0.00135398,0.00198798 -0.00135398,0.00325643l5.11287e-006 0 0 4.64806e-007 0 1.39442e-006 -5.11287e-006 0c4.64806e-007,0.00126753 0.000517794,0.00241885 0.00135352,0.00325504 0.000836187,0.000836187 0.00198798,0.00135398 0.00325643,0.00135398l0 -5.11287e-006 4.64806e-007 0 1.39442e-006 0 0 5.11287e-006c0.00126753,-4.64806e-007 0.00241885,-0.000517794 0.00325504,-0.00135352 0.000836187,-0.000836652 0.00135398,-0.00198798 0.00135398,-0.00325643l-5.11287e-006 0 0 -4.64806e-007 0 -1.39442e-006 5.11287e-006 0c-4.64806e-007,-0.00126753 -0.000517794,-0.00241885 -0.00135352,-0.00325504 -0.000836652,-0.000836187 -0.00198798,-0.00135398 -0.00325643,-0.00135398z"/>
  </g>
 </g>
</svg>
