<?xml version="1.0" encoding="UTF-8"?>
<!DOCTYPE svg PUBLIC "-//W3C//DTD SVG 1.1//EN" "http://www.w3.org/Graphics/SVG/1.1/DTD/svg11.dtd">
<!-- Creator: CorelDRAW -->
<svg xmlns="http://www.w3.org/2000/svg" xml:space="preserve" width="0.47002in" height="0.47002in" style="shape-rendering:geometricPrecision; text-rendering:geometricPrecision; image-rendering:optimizeQuality; fill-rule:evenodd; clip-rule:evenodd"
viewBox="0 0 0.134778 0.134778"
 xmlns:xlink="http://www.w3.org/1999/xlink">
 <defs>
  <style type="text/css">
   <![CDATA[
    .fil0 {fill:#CDD2D5}
    .fil1 {fill:#CDD2D5;fill-rule:nonzero}
   ]]>
  </style>
 </defs>
 <g id="Layer_x0020_1">
  <metadata id="CorelCorpID_0Corel-Layer"/>
  <g id="_142637472">
   <path id="_142637160" class="fil0" d="M0.0417095 0.034122c0.0045225,0 0.00818928,0.00366677 0.00818928,0.00818815 0,0.0045225 -0.00366677,0.00818815 -0.00818928,0.00818815 -0.00452137,0 -0.00818815,-0.00366564 -0.00818815,-0.00818815 0,-0.00452137 0.00366677,-0.00818815 0.00818815,-0.00818815zm0.0160399 0.0665325l0 -0.0442756 0.0133699 0 0 0.00630057c0.00603301,-0.011094 0.030138,-0.0130143 0.030138,0.0120243l0 0.0259508 -0.0144469 0 0 -0.0251876c0,-0.0112893 -0.015533,-0.0104449 -0.015533,7.22517e-005l0 0.0251154 -0.013528 0zm-0.0229726 0l0 -0.0442756 0.0138655 0 0 0.0442756 -0.0138655 0z"/>
   <path id="_142637424" class="fil1" d="M0.0673894 0l7.90253e-006 0 0 2.03208e-005c0.0186161,2.25786e-006 0.0354632,0.0075424 0.0476432,0.0197224 0.0121767,0.0121789 0.0197123,0.0290203 0.0197168,0.0476297l2.03208e-005 0 0 1.6934e-005 0 7.90253e-006 -2.03208e-005 0c-2.25786e-006,0.0186172 -0.0075424,0.0354632 -0.0197224,0.0476432 -0.0121789,0.0121767 -0.0290192,0.0197123 -0.0476285,0.0197168l0 2.03208e-005 -1.6934e-005 0 -7.90253e-006 0 0 -2.03208e-005c-0.0186161,-2.25786e-006 -0.0354632,-0.00754014 -0.0476443,-0.0197224 -0.0121778,-0.0121789 -0.0197123,-0.0290192 -0.0197168,-0.0476285l-2.03208e-005 0 0 -1.6934e-005 0 -7.90253e-006 2.03208e-005 0c2.25786e-006,-0.0186161 0.00753901,-0.035462 0.0197224,-0.0476432 0.0121789,-0.0121778 0.0290192,-0.0197134 0.0476297,-0.0197179l0 -2.03208e-005 1.6934e-005 0zm7.90253e-006 0.00993686l0 2.03208e-005 -7.90253e-006 0 -1.6934e-005 0 0 -2.03208e-005c-0.0158344,3.3868e-006 -0.0301877,0.00644056 -0.0405896,0.0168414 -0.0104065,0.0104042 -0.0168448,0.0247631 -0.0168459,0.0406032l2.03208e-005 0 0 7.90253e-006 0 1.6934e-005 -2.03208e-005 0c3.3868e-006,0.0158333 0.00643943,0.0301865 0.0168403,0.0405885 0.0104042,0.0104054 0.0247643,0.0168448 0.0406043,0.0168459l0 -2.03208e-005 7.90253e-006 0 1.6934e-005 0 0 2.03208e-005c0.0158333,-3.3868e-006 0.0301865,-0.00644056 0.0405885,-0.0168403 0.0104042,-0.0104042 0.0168448,-0.0247631 0.0168459,-0.0406032l-2.03208e-005 0 0 -7.90253e-006 0 -1.6934e-005 2.03208e-005 0c-3.3868e-006,-0.0158333 -0.00644056,-0.0301877 -0.0168403,-0.0405896 -0.0104042,-0.0104042 -0.0247643,-0.0168448 -0.0406032,-0.0168459z"/>
  </g>
 </g>
</svg>
