<?xml version="1.0" encoding="UTF-8"?>
<!DOCTYPE svg PUBLIC "-//W3C//DTD SVG 1.1//EN" "http://www.w3.org/Graphics/SVG/1.1/DTD/svg11.dtd">
<!-- Creator: CorelDRAW -->
<svg xmlns="http://www.w3.org/2000/svg" xml:space="preserve" width="0.47002in" height="0.47002in" style="shape-rendering:geometricPrecision; text-rendering:geometricPrecision; image-rendering:optimizeQuality; fill-rule:evenodd; clip-rule:evenodd"
viewBox="0 0 0.0652743 0.0652743"
 xmlns:xlink="http://www.w3.org/1999/xlink">
 <defs>
  <style type="text/css">
   <![CDATA[
    .fil0 {fill:#CDD2D5}
    .fil1 {fill:#CDD2D5;fill-rule:nonzero}
   ]]>
  </style>
 </defs>
 <g id="Layer_x0020_1">
  <metadata id="CorelCorpID_0Corel-Layer"/>
  <g id="_142637568">
   <path id="_142637880" class="fil0" d="M0.0484364 0.0162342l-0.00546426 0 -0.00901161 0.0106355 -0.00805752 -0.0106355 -0.0113845 0 0.0134316 0.0177291 -0.0127744 0.0150762 0.00546426 0 0.0098897 -0.0116716 0.00884211 0.0116716 0.0113845 0 -0.0142162 -0.0187652 0.0118963 -0.0140401zm-0.027382 0.00324827l0.0199314 0.0263087 0.0032346 0 -0.0199314 -0.0263087 -0.0032346 0z"/>
   <path id="_142637952" class="fil1" d="M0.0326374 0l3.82728e-006 0 0 9.84158e-006c0.00901598,1.09351e-006 0.0171752,0.00365287 0.0230741,0.0095518 0.00589729,0.00589839 0.00954688,0.0140549 0.00954907,0.0230676l9.84158e-006 0 0 8.20132e-006 0 3.82728e-006 -9.84158e-006 0c-1.09351e-006,0.00901653 -0.00365287,0.0171752 -0.0095518,0.0230741 -0.00589839,0.00589729 -0.0140543,0.00954688 -0.023067,0.00954907l0 9.84158e-006 -8.20132e-006 0 -3.82728e-006 0 0 -9.84158e-006c-0.00901598,-1.09351e-006 -0.0171752,-0.00365177 -0.0230747,-0.0095518 -0.00589784,-0.00589839 -0.00954688,-0.0140543 -0.00954907,-0.023067l-9.84158e-006 0 0 -8.20132e-006 0 -3.82728e-006 9.84158e-006 0c1.09351e-006,-0.00901598 0.00365123,-0.0171747 0.0095518,-0.0230741 0.00589839,-0.00589784 0.0140543,-0.00954743 0.0230676,-0.00954961l0 -9.84158e-006 8.20132e-006 0zm3.82728e-006 0.00481253l0 9.84158e-006 -3.82728e-006 0 -8.20132e-006 0 0 -9.84158e-006c-0.00766878,1.64026e-006 -0.0146202,0.00311923 -0.019658,0.00815648 -0.00503998,0.00503889 -0.00815812,0.0119931 -0.00815867,0.0196646l9.84158e-006 0 0 3.82728e-006 0 8.20132e-006 -9.84158e-006 0c1.64026e-006,0.00766823 0.00311869,0.0146197 0.00815594,0.0196575 0.00503889,0.00503944 0.0119936,0.00815812 0.0196651,0.00815867l0 -9.84158e-006 3.82728e-006 0 8.20132e-006 0 0 9.84158e-006c0.00766823,-1.64026e-006 0.0146197,-0.00311923 0.0196575,-0.00815594 0.00503889,-0.00503889 0.00815812,-0.0119931 0.00815867,-0.0196646l-9.84158e-006 0 0 -3.82728e-006 0 -8.20132e-006 9.84158e-006 0c-1.64026e-006,-0.00766823 -0.00311923,-0.0146202 -0.00815594,-0.019658 -0.00503889,-0.00503889 -0.0119936,-0.00815812 -0.0196646,-0.00815867z"/>
  </g>
 </g>
</svg>
